# xmcd
#
# Track frame offsets: 
#        150
#        20797
#        51397
#        74044
#        94866
#        120903
#        144738
#
# Disc length: 3137 seconds
#
# Revision: 2
# Processed by: cddbd v1.5.2PL0 Copyright (c) Steve Scherf et al.
# Submitted via: ExactAudioCopy v1.0b3
#
DISCID=690c3f07
DTITLE=Ron Carter - The World Of Ron Carter
DYEAR=2009
DGENRE=Jazz
TTITLE0=Dear Old Stockholm
TTITLE1=My Man's Gone Now
TTITLE2=Nuages
TTITLE3=Greensleeves
TTITLE4=Loose Change
TTITLE5=Desert Lament
TTITLE6=The Suite
EXTD=YEAR: 2009
EXTT0=
EXTT1=
EXTT2=
EXTT3=
EXTT4=
EXTT5=
EXTT6=
PLAYORDER=
